<svg xmlns="http://www.w3.org/2000/svg" width="1280" height="720" viewBox="0 0 1280 720">
<defs>
  <marker id="arrow" markerWidth="12" markerHeight="12" refX="10" refY="6" orient="auto" markerUnits="strokeWidth">
    <path d="M2,2 L10,6 L2,10 Z" fill="#6b8fc5"/>
  </marker>
  <filter id="softShadow" x="-20%" y="-20%" width="140%" height="140%">
    <feDropShadow dx="0" dy="4" stdDeviation="4" flood-color="#0f172a" flood-opacity="0.12"/>
  </filter>
</defs>
<rect width="1280" height="720" fill="#3158e8"/>
<rect x="26" y="20" width="1228" height="680" rx="20" fill="white" filter="url(#softShadow)"/>
<text x="72" y="74" font-family="'Apple SD Gothic Neo', 'AppleGothic', 'Arial Unicode MS', sans-serif" font-size="34" font-weight="900" fill="#111827">기술적 챌린지 - 장애에서 PR까지의 폐루프</text>
<line x1="72" y1="104" x2="1208" y2="104" stroke="#2f5cf6" stroke-width="2"/>
<rect x="64" y="168" width="170" height="110" rx="8" fill="#dcfce7" stroke="#22c55e" stroke-width="2"/><line x1="64" y1="214" x2="234" y2="214" stroke="#22c55e" stroke-width="2"/><text x="149" y="199" font-family="'Apple SD Gothic Neo', 'AppleGothic', 'Arial Unicode MS', sans-serif" font-size="20" font-weight="800" fill="#111827" text-anchor="middle"><tspan x="149" dy="0">Target Telemetry</tspan></text><text x="82" y="243" font-family="'Apple SD Gothic Neo', 'AppleGothic', 'Arial Unicode MS', sans-serif" font-size="17" font-weight="600" fill="#4b5563" text-anchor="start"><tspan x="82" dy="0">metrics / logs</tspan><tspan x="82" dy="23">events / state</tspan></text><line x1="236" y1="224" x2="310" y2="224" stroke="#6b8fc5" stroke-width="5" stroke-linecap="round" marker-end="url(#arrow)"/><rect x="310" y="168" width="180" height="110" rx="8" fill="#eaf1ff" stroke="#2f5cf6" stroke-width="2"/><line x1="310" y1="214" x2="490" y2="214" stroke="#2f5cf6" stroke-width="2"/><text x="400" y="188" font-family="'Apple SD Gothic Neo', 'AppleGothic', 'Arial Unicode MS', sans-serif" font-size="17" font-weight="800" fill="#111827" text-anchor="middle"><tspan x="400" dy="0">Evidence Builder</tspan><tspan x="400" dy="18">Worker</tspan></text><text x="328" y="243" font-family="'Apple SD Gothic Neo', 'AppleGothic', 'Arial Unicode MS', sans-serif" font-size="17" font-weight="600" fill="#4b5563" text-anchor="start"><tspan x="328" dy="0">운영 데이터를</tspan><tspan x="328" dy="23">증거 묶음으로 정리</tspan></text><line x1="492" y1="224" x2="566" y2="224" stroke="#6b8fc5" stroke-width="5" stroke-linecap="round" marker-end="url(#arrow)"/><rect x="566" y="168" width="180" height="110" rx="8" fill="#eaf1ff" stroke="#2f5cf6" stroke-width="2"/><line x1="566" y1="214" x2="746" y2="214" stroke="#2f5cf6" stroke-width="2"/><text x="656" y="188" font-family="'Apple SD Gothic Neo', 'AppleGothic', 'Arial Unicode MS', sans-serif" font-size="17" font-weight="800" fill="#111827" text-anchor="middle"><tspan x="656" dy="0">Incident Detector</tspan><tspan x="656" dy="18">Worker</tspan></text><text x="584" y="243" font-family="'Apple SD Gothic Neo', 'AppleGothic', 'Arial Unicode MS', sans-serif" font-size="17" font-weight="600" fill="#4b5563" text-anchor="start"><tspan x="584" dy="0">장애 여부</tspan><tspan x="584" dy="23">심각도 판단</tspan></text><line x1="748" y1="224" x2="822" y2="224" stroke="#6b8fc5" stroke-width="5" stroke-linecap="round" marker-end="url(#arrow)"/><rect x="822" y="168" width="180" height="110" rx="8" fill="#eaf1ff" stroke="#2f5cf6" stroke-width="2"/><line x1="822" y1="214" x2="1002" y2="214" stroke="#2f5cf6" stroke-width="2"/><text x="912" y="188" font-family="'Apple SD Gothic Neo', 'AppleGothic', 'Arial Unicode MS', sans-serif" font-size="17" font-weight="800" fill="#111827" text-anchor="middle"><tspan x="912" dy="0">RCA Analyzer</tspan><tspan x="912" dy="18">Worker</tspan></text><text x="840" y="243" font-family="'Apple SD Gothic Neo', 'AppleGothic', 'Arial Unicode MS', sans-serif" font-size="17" font-weight="600" fill="#4b5563" text-anchor="start"><tspan x="840" dy="0">원인 후보</tspan><tspan x="840" dy="23">confidence 생성</tspan></text><line x1="1004" y1="224" x2="1072" y2="224" stroke="#6b8fc5" stroke-width="5" stroke-linecap="round" marker-end="url(#arrow)"/><rect x="1072" y="168" width="160" height="110" rx="8" fill="#eaf1ff" stroke="#2f5cf6" stroke-width="2"/><line x1="1072" y1="214" x2="1232" y2="214" stroke="#2f5cf6" stroke-width="2"/><text x="1152" y="188" font-family="'Apple SD Gothic Neo', 'AppleGothic', 'Arial Unicode MS', sans-serif" font-size="17" font-weight="800" fill="#111827" text-anchor="middle"><tspan x="1152" dy="0">Recovery Planner</tspan><tspan x="1152" dy="18">Worker</tspan></text><text x="1090" y="243" font-family="'Apple SD Gothic Neo', 'AppleGothic', 'Arial Unicode MS', sans-serif" font-size="17" font-weight="600" fill="#4b5563" text-anchor="start"><tspan x="1090" dy="0">복구안 생성</tspan><tspan x="1090" dy="23">rollback / restart</tspan></text><circle cx="386" cy="132" r="24" fill="#f3cd61"/><text x="386" y="139" font-family="'Apple SD Gothic Neo', 'AppleGothic', 'Arial Unicode MS', sans-serif" font-size="22" font-weight="800" fill="#111827" text-anchor="middle"><tspan x="386" dy="0">1</tspan></text><circle cx="910" cy="132" r="24" fill="#f3cd61"/><text x="910" y="139" font-family="'Apple SD Gothic Neo', 'AppleGothic', 'Arial Unicode MS', sans-serif" font-size="22" font-weight="800" fill="#111827" text-anchor="middle"><tspan x="910" dy="0">2</tspan></text><line x1="1152" y1="278" x2="1152" y2="348" stroke="#6b8fc5" stroke-width="5" stroke-linecap="round" marker-end="url(#arrow)"/><polygon points="1152,342 1232,410 1152,478 1072,410" fill="#fff7ed" stroke="#f59e0b" stroke-width="2"/><text x="1152" y="404" font-family="'Apple SD Gothic Neo', 'AppleGothic', 'Arial Unicode MS', sans-serif" font-size="22" font-weight="900" fill="#111827" text-anchor="middle"><tspan x="1152" dy="0">Policy</tspan><tspan x="1152" dy="28">Guard</tspan></text><line x1="1072" y1="410" x2="916" y2="410" stroke="#6b8fc5" stroke-width="5" stroke-linecap="round" marker-end="url(#arrow)"/><rect x="736" y="355" width="180" height="110" rx="8" fill="#fee2e2" stroke="#ef4444" stroke-width="2"/><line x1="736" y1="401" x2="916" y2="401" stroke="#ef4444" stroke-width="2"/><text x="826" y="386" font-family="'Apple SD Gothic Neo', 'AppleGothic', 'Arial Unicode MS', sans-serif" font-size="20" font-weight="800" fill="#111827" text-anchor="middle"><tspan x="826" dy="0">Alert Worker</tspan></text><text x="754" y="430" font-family="'Apple SD Gothic Neo', 'AppleGothic', 'Arial Unicode MS', sans-serif" font-size="17" font-weight="600" fill="#4b5563" text-anchor="start"><tspan x="754" dy="0">알람 요청</tspan><tspan x="754" dy="23">운영자에게 전달</tspan></text><line x1="1072" y1="448" x2="916" y2="518" stroke="#6b8fc5" stroke-width="5" stroke-linecap="round" marker-end="url(#arrow)"/><rect x="736" y="480" width="180" height="110" rx="8" fill="#f3e8ff" stroke="#7c3aed" stroke-width="2"/><line x1="736" y1="526" x2="916" y2="526" stroke="#7c3aed" stroke-width="2"/><text x="826" y="500" font-family="'Apple SD Gothic Neo', 'AppleGothic', 'Arial Unicode MS', sans-serif" font-size="17" font-weight="800" fill="#111827" text-anchor="middle"><tspan x="826" dy="0">Safe PR Agent</tspan><tspan x="826" dy="18">Worker</tspan></text><text x="754" y="555" font-family="'Apple SD Gothic Neo', 'AppleGothic', 'Arial Unicode MS', sans-serif" font-size="17" font-weight="600" fill="#4b5563" text-anchor="start"><tspan x="754" dy="0">수정 patch</tspan><tspan x="754" dy="23">PR 설명 생성</tspan></text><line x1="736" y1="535" x2="620" y2="535" stroke="#6b8fc5" stroke-width="5" stroke-linecap="round" marker-end="url(#arrow)"/><rect x="440" y="480" width="180" height="110" rx="8" fill="#f3e8ff" stroke="#7c3aed" stroke-width="2"/><line x1="440" y1="526" x2="620" y2="526" stroke="#7c3aed" stroke-width="2"/><text x="530" y="511" font-family="'Apple SD Gothic Neo', 'AppleGothic', 'Arial Unicode MS', sans-serif" font-size="20" font-weight="800" fill="#111827" text-anchor="middle"><tspan x="530" dy="0">SCM / PR Worker</tspan></text><text x="458" y="555" font-family="'Apple SD Gothic Neo', 'AppleGothic', 'Arial Unicode MS', sans-serif" font-size="17" font-weight="600" fill="#4b5563" text-anchor="start"><tspan x="458" dy="0">PR 생성</tspan><tspan x="458" dy="23">상태 추적</tspan></text><line x1="1152" y1="478" x2="1152" y2="560" stroke="#6b8fc5" stroke-width="5" stroke-linecap="round" marker-end="url(#arrow)"/><rect x="980" y="552" width="250" height="108" rx="8" fill="#fff7ed" stroke="#f59e0b" stroke-width="2"/><line x1="980" y1="598" x2="1230" y2="598" stroke="#f59e0b" stroke-width="2"/><text x="1105" y="572" font-family="'Apple SD Gothic Neo', 'AppleGothic', 'Arial Unicode MS', sans-serif" font-size="17" font-weight="800" fill="#111827" text-anchor="middle"><tspan x="1105" dy="0">Approval / Command</tspan><tspan x="1105" dy="18">Worker</tspan></text><text x="998" y="627" font-family="'Apple SD Gothic Neo', 'AppleGothic', 'Arial Unicode MS', sans-serif" font-size="17" font-weight="600" fill="#4b5563" text-anchor="start"><tspan x="998" dy="0">사람 승인 후 실행</tspan><tspan x="998" dy="23">auto apply는 정책으로 차단</tspan></text><line x1="980" y1="604" x2="916" y2="604" stroke="#6b8fc5" stroke-width="5" stroke-linecap="round" marker-end="url(#arrow)"/><rect x="736" y="590" width="180" height="100" rx="8" fill="#dcfce7" stroke="#22c55e" stroke-width="2"/><line x1="736" y1="636" x2="916" y2="636" stroke="#22c55e" stroke-width="2"/><text x="826" y="610" font-family="'Apple SD Gothic Neo', 'AppleGothic', 'Arial Unicode MS', sans-serif" font-size="17" font-weight="800" fill="#111827" text-anchor="middle"><tspan x="826" dy="0">Target Cluster</tspan><tspan x="826" dy="18">Agent</tspan></text><text x="754" y="665" font-family="'Apple SD Gothic Neo', 'AppleGothic', 'Arial Unicode MS', sans-serif" font-size="17" font-weight="600" fill="#4b5563" text-anchor="start"><tspan x="754" dy="0">apply / rollout</tspan><tspan x="754" dy="23">결과 보고</tspan></text><rect x="64" y="340" width="330" height="150" rx="10" fill="#f8fbff" stroke="#2f5cf6" stroke-width="2"/><text x="88" y="380" font-family="'Apple SD Gothic Neo', 'AppleGothic', 'Arial Unicode MS', sans-serif" font-size="23" font-weight="900" fill="#111827" text-anchor="start"><tspan x="88" dy="0">발표 포인트</tspan></text><text x="88" y="414" font-family="'Apple SD Gothic Neo', 'AppleGothic', 'Arial Unicode MS', sans-serif" font-size="17" font-weight="750" fill="#4b5563" text-anchor="start"><tspan x="88" dy="0">단순 모니터링이 아니라</tspan><tspan x="88" dy="24">장애 감지 -&gt; 원인 분석</tspan><tspan x="88" dy="24">-&gt; PR/명령까지 이어지는</tspan><tspan x="88" dy="24">운영 자동화 폐루프다.</tspan></text>
</svg>